<svg width="2164" height="2911" viewBox="0 0 2164 2911" fill="none" xmlns="http://www.w3.org/2000/svg">
<path fill-rule="evenodd" clip-rule="evenodd" d="M533.362 787.657C579.43 752.234 655.404 696.419 750.086 636.494H750.081C750.081 636.494 544.461 515.399 442.829 409.624C341.197 303.849 320.458 142.066 164.907 98.517C164.907 98.517 237.493 146.218 278.979 233.327C320.464 320.44 291.427 399.254 370.241 478.065C370.241 478.065 298.684 448 272.758 331.85C272.758 331.85 269.647 416.885 301.798 489.48C333.943 562.07 413.794 627.4 453.202 683.403C492.608 739.401 533.364 787.651 533.364 787.651V787.657H533.362ZM802.744 1857.32C802.744 1857.32 824.519 1969.32 872.226 2051.25L888.817 1909.17C888.817 1909.17 827.633 1889.47 802.744 1857.32ZM596.216 1138.65C596.216 1138.65 616.956 1135.54 667.768 1180.13C718.585 1224.73 764.213 1317.02 860.656 1334.65C860.656 1334.65 767.326 1357.47 701.991 1342.95C636.657 1328.43 581.698 1239.24 596.216 1138.65ZM1021.38 1826.21C1021.38 1826.21 1012.05 1733.91 963.303 1673.77C914.561 1613.62 875.156 1592.88 839.897 1608.43C804.639 1623.99 813.969 1717.32 904.19 1767.1C904.19 1767.1 886.559 1731.84 880.343 1704.87C874.12 1677.91 915.601 1679.98 953.968 1738.06C992.34 1796.13 999.601 1802.35 1021.38 1826.21ZM1630.5 787.657C1584.43 752.234 1508.46 696.419 1413.78 636.494H1413.78C1413.78 636.494 1619.41 515.399 1721.04 409.624C1822.67 303.849 1843.41 142.066 1998.96 98.517C1998.96 98.517 1926.37 146.218 1884.89 233.327C1843.4 320.44 1872.44 399.254 1793.63 478.065C1793.63 478.065 1865.18 448 1891.11 331.85C1891.11 331.85 1894.22 416.885 1862.07 489.48C1829.92 562.07 1750.07 627.4 1710.67 683.403C1671.26 739.401 1630.5 787.651 1630.5 787.651V787.657H1630.5ZM1361.12 1857.32C1361.12 1857.32 1339.35 1969.32 1291.64 2051.25L1275.05 1909.17C1275.05 1909.17 1336.23 1889.47 1361.12 1857.32ZM1567.65 1138.65C1567.65 1138.65 1546.91 1135.54 1496.1 1180.13C1445.28 1224.73 1399.65 1317.02 1303.21 1334.65C1303.21 1334.65 1396.54 1357.47 1461.87 1342.95C1527.21 1328.43 1582.17 1239.24 1567.65 1138.65ZM1142.49 1826.21C1142.49 1826.21 1151.82 1733.91 1200.56 1673.77C1249.3 1613.62 1288.71 1592.88 1323.97 1608.43C1359.23 1623.99 1349.9 1717.32 1259.68 1767.1C1259.68 1767.1 1277.31 1731.84 1283.52 1704.87C1289.75 1677.91 1248.27 1679.98 1209.9 1738.06C1171.53 1796.13 1164.27 1802.35 1142.49 1826.21ZM1081.93 459.409C992.226 497.716 906.586 542.801 829.569 588.012L829.564 588.004C440.618 421.047 480.148 342.221 359.855 174.221C239.562 6.22101 5.18799 0 5.18799 0C115.116 76.738 202.23 176.295 214.673 342.221C227.118 508.148 328.745 605.626 372.303 669.921C415.858 734.214 484.404 826.516 484.404 826.516L146.329 795.406C146.329 795.406 233.442 886.671 293.589 966.519C310.885 989.484 329.802 1010.56 347.23 1031.89C346.984 1031.99 149.249 1106.63 14.519 1291.1C14.519 1291.1 90.373 1246.61 259.257 1257.92C259.257 1257.92 74.668 1386.51 0 1710.06C0 1710.06 91.927 1651.48 261.33 1585.61C261.33 1585.61 155.552 1759.85 168 1985.91C168 1985.91 217.777 1867.7 344.292 1749.48C344.292 1749.48 244.734 2035.7 408.585 2307.4C408.585 2307.4 394.676 2106.43 506.068 1965.18C506.068 1965.18 464.587 2205.77 667.846 2454.66L711.402 2365.47C711.402 2365.47 752.876 2494.07 860.73 2639.25L885.619 2502.37C885.619 2502.37 1064.62 2834.21 1081.93 2910.95C1099.25 2834.21 1278.24 2502.37 1278.24 2502.37L1303.13 2639.25C1410.99 2494.07 1452.46 2365.47 1452.46 2365.47L1496.02 2454.66C1699.28 2205.77 1657.8 1965.18 1657.8 1965.18C1769.19 2106.43 1755.28 2307.4 1755.28 2307.4C1919.13 2035.7 1819.57 1749.48 1819.57 1749.48C1946.09 1867.7 1995.86 1985.91 1995.86 1985.91C2008.31 1759.85 1902.53 1585.61 1902.53 1585.61C2071.94 1651.48 2163.86 1710.06 2163.86 1710.06C2089.2 1386.51 1904.61 1257.92 1904.61 1257.92C2073.49 1246.61 2149.35 1291.1 2149.35 1291.1C2014.61 1106.63 1816.88 1031.99 1816.63 1031.89C1834.06 1010.56 1852.98 989.484 1870.28 966.519C1930.42 886.671 2017.54 795.406 2017.54 795.406L1679.46 826.516C1679.46 826.516 1748.01 734.214 1791.56 669.921C1835.12 605.626 1936.75 508.148 1949.19 342.221C1961.64 176.295 2048.75 76.738 2158.68 0C2158.68 0 1924.3 6.22101 1804.01 174.221C1683.72 342.221 1723.25 421.047 1334.3 588.004L1334.3 588.012C1257.28 542.801 1171.64 497.716 1081.93 459.409ZM1081.93 1213.34L1062.11 1242.37L850.559 1027.71L1038.27 1274.52L971.905 1337.78C899.315 1375.11 812.202 1252.74 714.723 1149.04C617.243 1045.33 496.947 964.444 496.947 964.444L619.313 1124.14C619.313 1124.14 511.465 1076.45 434.721 1026.66C357.982 976.889 260.508 864.892 260.508 864.892C260.508 864.892 571.63 900.15 652.52 933.333C733.407 966.521 847.482 1109.63 847.482 1109.63C729.259 887.705 570.633 836.89 570.633 836.89C626.631 744.593 783.221 667.855 783.221 667.855C852.702 713.483 870.329 775.708 870.329 775.708C930.475 922.963 1025.89 1032.89 1025.89 1032.89C930.48 769.481 1081.93 578.666 1081.93 578.666C1081.93 578.666 1233.38 769.481 1137.98 1032.89C1137.98 1032.89 1233.39 922.963 1293.53 775.708C1293.53 775.708 1311.16 713.483 1380.64 667.855C1380.64 667.855 1537.23 744.593 1593.23 836.89C1593.23 836.89 1434.6 887.705 1316.38 1109.63C1316.38 1109.63 1430.46 966.522 1511.34 933.333C1592.23 900.15 1903.35 864.892 1903.35 864.892C1903.35 864.892 1805.88 976.889 1729.14 1026.66C1652.4 1076.45 1544.55 1124.14 1544.55 1124.14L1666.92 964.444C1666.92 964.444 1546.62 1045.33 1449.14 1149.04C1351.66 1252.74 1264.55 1375.11 1191.96 1337.78L1125.59 1274.52L1313.3 1027.71L1101.75 1242.37L1081.93 1213.34ZM1081.93 1898.81C983.576 1898.81 904.441 1881.18 830.813 1810.67C757.182 1740.15 714.667 1605.33 573.629 1532.74C432.596 1460.15 382.819 1391.71 382.819 1391.71C401.486 1348.15 438.818 1238.22 438.818 1238.22L489.63 1351.26C468.889 1283.85 449.188 1131.41 449.188 1131.41C455.412 1167.7 534.228 1257.93 534.228 1257.93C506.226 1178.07 520.744 1121.04 520.744 1121.04L557.041 1137.64C551.854 1321.19 655.564 1375.12 736.456 1383.41C817.343 1391.71 884.751 1365.78 884.751 1365.78L960.455 1388.6C940.75 1420.75 875.42 1502.67 875.42 1502.67C809.046 1516.15 789.346 1551.42 789.346 1551.42C742.678 1479.86 699.125 1453.93 627.568 1425.93C556.016 1397.93 528.015 1362.68 528.015 1362.68C553.943 1424.9 625.494 1461.19 673.196 1497.49C720.903 1533.78 756.166 1601.19 770.684 1647.86C785.202 1694.52 829.796 1738.08 829.796 1738.08C812.165 1710.08 772.758 1640.6 806.983 1586.67C841.202 1532.75 895.129 1550.38 913.797 1561.78C932.464 1573.19 1018.54 1631.26 1018.54 1631.26L912.761 1491.27L1081.93 1307.71L1251.1 1491.27L1145.33 1631.26C1145.33 1631.26 1231.4 1573.19 1250.07 1561.78C1268.74 1550.38 1322.67 1532.75 1356.88 1586.67C1391.11 1640.6 1351.7 1710.08 1334.07 1738.08C1334.07 1738.08 1378.66 1694.52 1393.18 1647.86C1407.7 1601.19 1442.96 1533.78 1490.67 1497.49C1538.37 1461.19 1609.92 1424.9 1635.85 1362.68C1635.85 1362.68 1607.85 1397.93 1536.3 1425.93C1464.74 1453.93 1421.19 1479.86 1374.52 1551.42C1374.52 1551.42 1354.82 1516.15 1288.44 1502.67C1288.44 1502.67 1223.12 1420.75 1203.41 1388.6L1279.11 1365.78C1279.11 1365.78 1346.52 1391.71 1427.41 1383.41C1508.3 1375.12 1612.01 1321.19 1606.82 1137.64L1643.12 1121.04C1643.12 1121.04 1657.64 1178.07 1629.64 1257.93C1629.64 1257.93 1708.46 1167.7 1714.68 1131.41C1714.68 1131.41 1694.98 1283.85 1674.24 1351.26L1725.05 1238.22C1725.05 1238.22 1762.38 1348.15 1781.05 1391.71C1781.05 1391.71 1731.27 1460.15 1590.24 1532.74C1449.2 1605.33 1406.68 1740.15 1333.05 1810.67C1259.42 1881.18 1180.29 1898.81 1081.93 1898.81ZM1081.93 2315.52C967.055 2317.59 912.662 2287.52 903.331 2241.89C894.001 2196.26 897.109 2082.19 897.109 2082.19C897.109 2082.19 923.033 2185.89 958.296 2239.82C993.554 2293.75 1081.93 2285.45 1081.93 2285.45C1081.93 2285.45 1170.31 2293.75 1205.57 2239.82C1240.83 2185.89 1266.76 2082.19 1266.76 2082.19C1266.76 2082.19 1269.87 2196.26 1260.54 2241.89C1251.2 2287.52 1196.81 2317.59 1081.93 2315.52ZM1081.93 2400.72C1081.93 2400.72 905.362 2392.42 843.138 2292.87C683.009 1834.57 596.496 1658.53 564.28 1586.63C615.04 1620.09 622.773 1626.47 651.979 1684.29C684.279 1748.23 725.764 1832.27 749.836 1888.43C793.395 1990.06 865.985 2154.94 876.356 2221.31C886.727 2287.69 899.661 2364.42 1081.93 2354.05C1264.21 2364.42 1277.14 2287.69 1287.51 2221.31C1297.88 2154.94 1370.47 1990.06 1414.03 1888.43C1438.1 1832.27 1479.59 1748.23 1511.89 1684.29C1541.1 1626.47 1548.83 1620.09 1599.59 1586.63C1567.37 1658.53 1480.86 1834.57 1320.73 2292.87C1258.5 2392.42 1081.93 2400.72 1081.93 2400.72ZM376.734 1299.93C343.636 1326.66 243.867 1409.84 181.446 1490.21C181.446 1490.21 280.163 1421.93 360.21 1434.72C363.506 1437.74 366.903 1440.77 370.4 1443.84V1443.84C420.445 1503.13 469.371 1570.04 514.868 1641.74C486.143 1680.39 431.879 1763.65 416.845 1858.37C416.845 1858.37 516.309 1802.54 587.69 1766.25C604.328 1797.22 620.184 1828.73 635.098 1860.57C628.3 1912.15 614.51 2032.6 615.941 2151.84C615.941 2151.84 661.026 2117.36 718.546 2074.53C737.179 2134.83 751.389 2194.87 760.178 2253.46C772.626 2336.42 814.654 2465.01 1081.93 2467.09C1349.21 2465.01 1391.24 2336.42 1403.69 2253.46C1412.48 2194.87 1426.69 2134.83 1445.32 2074.53C1502.84 2117.36 1547.93 2151.84 1547.93 2151.84C1549.36 2032.6 1535.57 1912.15 1528.77 1860.57C1543.68 1828.73 1559.54 1797.22 1576.18 1766.25C1647.56 1802.54 1747.02 1858.37 1747.02 1858.37C1731.99 1763.65 1677.73 1680.39 1649 1641.74C1694.5 1570.04 1743.42 1503.13 1793.47 1443.84V1443.84C1796.96 1440.77 1800.36 1437.74 1803.66 1434.72C1883.7 1421.93 1982.42 1490.21 1982.42 1490.21C1920 1409.84 1820.23 1326.66 1787.13 1299.93C1778.36 1280.26 1769.81 1256.47 1762.41 1227.85C1758.57 1212.96 1756.33 1199.04 1755.47 1185.93L1896.35 1171.84L1771.96 1098.9C1777.38 1087.37 1783.86 1076.4 1791.07 1065.74C1892.6 1110.04 2019.75 1219.55 2019.75 1219.55C1986.56 1216.44 1816.49 1241.33 1816.49 1241.33C2056.48 1373.26 2087.16 1614.66 2087.16 1614.66C1957.52 1548.28 1832.04 1531.7 1832.04 1531.7C1890.12 1645.77 1940.93 1801.32 1940.93 1801.32C1846.56 1707.99 1752.19 1664.43 1752.19 1664.43C1845.52 1911.25 1789.51 2114.51 1789.51 2114.51C1729.37 1975.55 1600.77 1865.62 1600.77 1865.62C1683.74 2114.51 1505.36 2383.1 1505.36 2383.1C1496.83 2334.22 1457.66 2228.58 1457.66 2228.58C1428.62 2371.69 1321.81 2554.21 1321.81 2554.21L1291.73 2442.21C1216.03 2497.18 1081.93 2747.1 1081.93 2747.1C1081.93 2747.1 947.837 2497.18 872.137 2442.21L842.062 2554.21C842.062 2554.21 735.247 2371.69 706.212 2228.58C706.212 2228.58 667.042 2334.22 658.509 2383.1C658.509 2383.1 480.129 2114.51 563.096 1865.62C563.096 1865.62 434.501 1975.55 374.356 2114.51C374.356 2114.51 318.347 1911.25 411.682 1664.43C411.682 1664.43 317.312 1707.99 222.942 1801.32C222.942 1801.32 273.749 1645.77 331.826 1531.7C331.826 1531.7 206.346 1548.28 76.712 1614.66C76.712 1614.66 107.384 1373.26 347.379 1241.33C347.379 1241.33 177.304 1216.44 144.116 1219.55C144.116 1219.55 271.268 1110.04 372.795 1065.74C380.005 1076.4 386.487 1087.37 391.905 1098.9L267.522 1171.84L408.404 1185.93C407.533 1199.04 405.298 1212.96 401.454 1227.85C394.06 1256.47 385.513 1280.26 376.734 1299.93Z" fill="white"/>
</svg>
